<?xml version="1.0" encoding="UTF-8"?>
<!DOCTYPE svg PUBLIC "-//W3C//DTD SVG 1.1//EN" "http://www.w3.org/Graphics/SVG/1.1/DTD/svg11.dtd">
<!-- Creator: CorelDRAW 2021 (64-Bit) -->
<svg xmlns="http://www.w3.org/2000/svg" xml:space="preserve" width="210mm" height="42.9279mm" version="1.1" style="shape-rendering:geometricPrecision; text-rendering:geometricPrecision; image-rendering:optimizeQuality; fill-rule:evenodd; clip-rule:evenodd"
viewBox="0 0 3415.75 698.24"
 xmlns:xlink="http://www.w3.org/1999/xlink"
 xmlns:xodm="http://www.corel.com/coreldraw/odm/2003">
 <defs>
  <style type="text/css">
   <![CDATA[
    .fil0 {fill:none}
    .fil1 {fill:#D2D3D5;fill-opacity:0.200000}
    .fil2 {fill:#A9ABAE;fill-opacity:0.200000}
    .fil3 {fill:#96989A;fill-opacity:0.200000}
    .fil5 {fill:#F37535;fill-opacity:0.200000}
    .fil4 {fill:#00ADE8;fill-opacity:0.200000}
    .fil6 {fill:#3C69A7;fill-opacity:0.200000}
   ]]>
  </style>
 </defs>
 <g id="Capa_x0020_1">
  <metadata id="CorelCorpID_0Corel-Layer"/>
  <g id="_3043499039792">
   <rect class="fil0" width="3415.75" height="698.24"/>
   <g>
    <path class="fil1" d="M1382.15 694.92c91.72,-233.22 254.11,-478.27 534.21,-691.6l321.26 0c-186.92,133.88 -465.04,367.95 -669.17,691.6l-186.31 0z"/>
    <path class="fil2" d="M1655.7 694.92c169.46,-245.78 443.29,-494.72 884.13,-624.58 171.83,-50.62 357.12,-26.69 511.06,64.69 0,0 -691.72,101.66 -1206.47,559.88l-188.72 0z"/>
    <path class="fil3" d="M2017.18 694.92c237.92,-156.78 562.03,-277.6 986.57,-254.75 155.34,8.36 301.36,73.06 412.01,179.94l0 43.6c-132.32,-19.66 -521.72,-62.6 -946.74,31.21l-451.83 0z"/>
    <path class="fil4" d="M1340.2 694.92c77.83,-228.85 220.86,-471.81 473.11,-691.6l301.32 0c-179.62,147.95 -420.47,383.2 -593.51,691.6l-180.93 0z"/>
    <path class="fil5" d="M1617.91 694.92c157.45,-256.59 421.09,-523.07 862.01,-674.74 19.05,-6.55 38.32,-12.16 57.73,-16.86l301.71 0c53.17,12.78 104.96,32.36 154.01,58.58l0.01 -0c0,0 -704.9,136.23 -1199.67,633.02l-175.81 0z"/>
    <path class="fil6" d="M1958.51 694.92c232.85,-177.93 560.8,-326.18 1005.68,-322.2 170.29,1.52 332.49,70.98 451.57,191.38l0 16.82c-100.88,-12.39 -606.8,-61.93 -1117.9,114l-339.34 0z"/>
   </g>
  </g>
 </g>
</svg>
