<?xml version="1.0" encoding="UTF-8"?>
<!DOCTYPE svg PUBLIC "-//W3C//DTD SVG 1.1//EN" "http://www.w3.org/Graphics/SVG/1.1/DTD/svg11.dtd">
<!-- Creator: CorelDRAW 2021 (64-Bit) -->
<svg xmlns="http://www.w3.org/2000/svg" xml:space="preserve" width="85.7242mm" height="30.2027mm" version="1.1" style="shape-rendering:geometricPrecision; text-rendering:geometricPrecision; image-rendering:optimizeQuality; fill-rule:evenodd; clip-rule:evenodd"
viewBox="0 0 6589.67 2321.7"
 xmlns:xlink="http://www.w3.org/1999/xlink"
 xmlns:xodm="http://www.corel.com/coreldraw/odm/2003">
 <defs>
  <style type="text/css">
   <![CDATA[
    .fil3 {fill:#00ADE8}
    .fil5 {fill:#3C69A7}
    .fil2 {fill:#999999}
    .fil1 {fill:#B3B3B3}
    .fil0 {fill:#CCCCCC}
    .fil4 {fill:#FF7519}
    .fil6 {fill:black;fill-rule:nonzero}
   ]]>
  </style>
 </defs>
 <g id="Capa_x0020_1">
  <metadata id="CorelCorpID_0Corel-Layer"/>
  <g id="_3006766699648">
   <path class="fil0" d="M1083.64 2321.7c0,0 -943.16,-309.8 -1017.73,-1395.3 -12.15,-176.89 51.07,-350.71 173.11,-479.68l0 0c0,0 -95.25,1303.71 844.62,1874.98z"/>
   <path class="fil1" d="M933.35 2129.37c0,0 -779.09,-613.74 -475.19,-1658.77 49.52,-170.28 168.77,-311.9 327.83,-391.27l0 0c0,0 -538.57,1191.86 147.36,2050.05z"/>
   <path class="fil2" d="M907.47 2003.58c0,0 -528.05,-838.27 109.25,-1721.63 103.84,-143.95 263.77,-237.61 440.31,-259.34l0 0c0,0 -907.74,943.43 -549.56,1980.97z"/>
   <path class="fil3" d="M1083.71 2321.69c0,0 -956.17,-267.21 -1079.64,-1348.27 -20.12,-176.16 35.19,-352.64 151.3,-486.96l0 0c0,0 -36.34,1306.67 928.34,1835.23z"/>
   <path class="fil4" d="M933.55 2129.47c0,0 -805.99,-578.2 -549.54,-1635.81 41.79,-172.33 154.53,-319.15 309.85,-405.57l0 0c0,0 -484.26,1214.79 239.69,2041.37z"/>
   <path class="fil5" d="M907.5 2003.59c0,0 -565.34,-813.74 31.46,-1724.78 97.25,-148.46 252.79,-249.19 428.17,-278.81l0 0c0,0 -864.26,983.16 -459.63,2003.59z"/>
   <path class="fil6" d="M2347.07 821.02l-520.12 0 0 -92.55 520.12 0 0 92.55zm3161.8 -309.5l0 449.92 0 61.03c-0.77,72.01 -23.95,133.68 -69.43,185.13 -46.37,51.33 -101.58,76.99 -165.87,76.99 -52.78,0 -100.42,-18.13 -142.69,-54.52 -42.27,-36.01 -70.2,-82.61 -84.03,-139.93l-4.48 -15.7 60.45 0 2.57 9.32c12.29,41.62 33.95,75.19 64.94,100.6 30.74,25.15 65.2,37.79 103.24,37.79 47.51,0 88.76,-19.4 123.73,-58.34 34.84,-39.2 52.65,-86.3 53.29,-141.33l-0.64 -61.03 0 19.16c-8.59,14.94 -30.1,32.94 -64.56,54.13 -34.85,21.19 -72.12,31.79 -111.82,31.79 -64.82,0 -120.28,-25.78 -166.26,-77.37 -45.6,-51.32 -68.66,-113.25 -69.43,-185.5l0 -292.12 58.16 0 -0.38 291.73c-1.03,47.87 16,95.76 50.98,143.63 36.38,40.35 78.64,60.51 126.94,60.51 45.72,0 86.71,-17.87 123.09,-53.75 34.45,-38.43 52.26,-83.88 53.29,-136.22l0 -306.29 58.92 0.38zm-3159.55 -239.91l-591.3 0 0 699.86 591.3 0 0 93.17 -686.62 0 0 -886.8 686.62 0 0 93.77zm476.36 190.41c61.97,23.04 111.88,61.77 149.92,116 39.07,54.43 58.7,115.18 58.7,182.05 0,88.48 -31.7,163.5 -95.31,225.27 -63.61,62.38 -140.1,93.77 -229.48,93.77 -88.77,0 -164.45,-30.78 -227.04,-92.14 -63.2,-60.75 -95.51,-139.85 -97.15,-237.09l91.63 0c1.64,71.35 24.95,128.64 70.16,172.06 45.2,43.83 99.19,65.65 162.4,65.65 64.22,0 119.24,-22.42 164.85,-67.48 45,-44.24 67.7,-97.44 67.7,-160.03 0,-63.2 -22.7,-117.02 -67.7,-161.26 -45.61,-45.05 -100.63,-67.48 -164.85,-67.48 -46.02,0 -86.32,-14.68 -121.09,-44.24 -4.7,-4.28 -7.98,-7.34 -9.61,-8.97 -36.61,-36.08 -55.02,-79.51 -55.02,-130.06 0,-50.97 18.41,-94.59 55.02,-130.88 36,-35.88 79.56,-53.82 130.7,-53.82 94.7,0.41 162.4,57.48 203.1,170.84l-111.47 -0.61c-2.45,-16.31 -10.84,-33.43 -25.16,-51.37 -18.41,-18.35 -40.5,-27.32 -66.47,-27.32 -25.57,0 -47.45,8.97 -65.86,27.32 -18.41,17.94 -27.61,39.96 -27.61,65.85 0,25.08 9.2,46.48 27.61,64.43 18.41,18.35 40.3,27.52 65.86,27.52 39.88,0 78.74,7.34 116.17,22.02zm1199.17 603.84l-110.24 0 -366.73 -692.11 -364.27 692.11 -113.31 0 419.5 -796.08 0 -0.61 58.7 -108.05 53.99 102.14 422.36 802.61zm644.07 -190c63.2,-58.91 94.7,-143.52 94.7,-253.8 0,-110.7 -31.5,-195.51 -94.7,-254.43 -46.84,-43.42 -108.81,-71.76 -186.33,-85.42 -40.7,-7.54 -75.88,-9.99 -105.54,-7.75l-1.84 0 -252.8 0 0 695.18 254.03 0c127.83,0 225.39,-31.19 292.48,-93.78zm64.02 -576.93c83.66,77.26 125.38,185.1 125.38,323.13 0,138.21 -41.73,245.86 -125.38,323.12 -58.7,54.64 -134.17,90.92 -226.41,108.86 -48.27,8.97 -92.86,12.44 -133.56,9.99l-280.41 0 -63 0 0.61 -884.56 128.24 0 215.17 0.61c56.65,0 103.29,3.47 139.49,10.2 87.96,17.53 161.17,53.82 219.87,108.66zm1854.9 428.32c-30.48,108.25 -86.32,193.67 -167.92,256.26 -81.81,63.2 -175.08,95 -279.79,95 -126.61,0 -235.01,-44.65 -325.42,-133.94 -89.38,-89.91 -134.17,-197.96 -134.17,-324.15 0,-125.98 44.79,-233.83 134.17,-323.73 90.41,-89.29 198.8,-133.94 325.42,-133.94 106.35,0 200.85,32.82 283.48,98.06 82.22,64.02 137.65,151.47 166.08,262.17l-97.76 0c-24.75,-81.14 -68.72,-145.97 -131.93,-194.08 -64.63,-48.52 -137.85,-72.98 -219.87,-72.98 -101.45,0 -187.76,35.68 -258.74,107.03 -71.58,70.94 -107.38,156.57 -107.38,257.48 0,101.12 35.8,187.15 107.38,257.89 70.97,71.35 157.28,107.03 258.74,107.03 79.97,0 151.76,-23.65 215.78,-70.54 63.2,-45.87 107.79,-108.25 134.17,-187.56l97.77 0z"/>
   <g>
    <path class="fil6" d="M1667.5 1593.57l76.25 0 0 17.32 -55.49 0 0 54.84 52.6 0 0 17.55 -52.6 0 0 59.88 58.4 0 0 17.32 -79.15 0 0 -166.91zm165.33 46.7l-1.78 17.87c-3.61,-1.88 -7.32,-3.27 -11.13,-4.24 -3.78,-0.92 -7.53,-1.4 -11.24,-1.4 -5.98,0 -10.56,1.4 -13.78,4.16 -3.22,2.78 -4.84,6.79 -4.84,12.04 0,4.07 1.09,7.49 3.29,10.3 2.22,2.76 7,6.05 14.37,9.89 12.75,6.66 21.27,12.75 25.57,18.33 4.3,5.53 6.47,12.23 6.47,20.04 0,10.79 -3.7,19.49 -11.14,26.14 -7.39,6.65 -17.3,9.98 -29.63,9.98 -5.32,0 -10.59,-0.56 -15.73,-1.68 -5.16,-1.12 -10.17,-2.84 -15.13,-5.1l1.66 -18.72c4.38,3.05 9.04,5.33 13.91,6.85 4.87,1.52 9.89,2.29 15.08,2.29 6.76,0 11.98,-1.57 15.64,-4.69 3.71,-3.12 5.56,-7.57 5.56,-13.27 0,-4.09 -1.21,-7.62 -3.66,-10.59 -2.41,-2.97 -8.46,-7.16 -18.01,-12.54l-0.49 -0.25c-18.71,-10.42 -28.03,-22.05 -28.03,-34.91 0,-10.62 3.42,-19.08 10.3,-25.3 6.88,-6.2 16.23,-9.33 28.1,-9.33 3.78,0 7.68,0.32 11.72,1 4.05,0.68 8.36,1.68 12.91,3.13zm54.96 -32.75l0 30.79 24.62 0 0 15.62 -24.62 0 0 69.08c0,8.78 1.01,14.63 3.06,17.63 2.05,2.97 5.7,4.45 10.97,4.45 1.93,0 3.87,-0.15 5.71,-0.48 1.85,-0.32 3.62,-0.77 5.36,-1.4l0 16.11c-3.22,0.88 -6.23,1.52 -9.02,1.96 -2.77,0.45 -5.42,0.65 -7.96,0.65 -10.39,0 -17.62,-2.65 -21.72,-7.98 -4.14,-5.33 -6.19,-16.47 -6.19,-33.38l0 -66.63 -18.57 0 0 -15.62 18.57 0 0 -24.69 19.79 -6.1zm44.92 30.79l20.04 0 0 82.25c0,8.29 1.6,14.51 4.77,18.59 3.18,4.13 7.93,6.17 14.28,6.17 7.79,0 13.96,-3 18.5,-8.97 4.54,-6.02 6.84,-14.24 6.84,-24.74l0 -0.71 0 -72.59 20.02 0 0 91.39c0,5.64 0.07,10.98 0.24,16.03 0.17,5.05 0.41,9.98 0.69,14.75l-18.26 0c-0.19,-2.37 -0.4,-6.3 -0.55,-11.87 -0.09,-2.48 -0.18,-4.48 -0.26,-5.97 -3.04,6.5 -7.43,11.51 -13.06,14.99 -5.67,3.49 -12.06,5.25 -19.21,5.25 -10.9,0 -19.33,-3.41 -25.18,-10.22 -5.91,-6.86 -8.86,-16.56 -8.86,-29.19l0 -85.17zm183.58 53.86c0,-12.67 -2.24,-22.44 -6.71,-29.34 -4.47,-6.89 -10.86,-10.33 -19.1,-10.33 -8.41,0 -14.72,3.97 -18.98,11.86 -4.23,7.89 -6.34,19.59 -6.34,35.08 0,15.67 2.11,27.42 6.34,35.31 4.26,7.86 10.57,11.78 18.98,11.78 8.24,0 14.63,-3.44 19.1,-10.38 4.47,-6.94 6.71,-16.8 6.71,-29.55l0 -14.43zm0 -111.1l20.04 0 0 179.41 -17.53 0c-0.41,-4.21 -0.68,-7.66 -0.81,-10.3 -0.08,-2.69 -0.16,-5.25 -0.16,-7.74 -4.1,7.18 -8.64,12.43 -13.68,15.64 -5.03,3.21 -11.07,4.81 -18.06,4.81 -13.75,0 -24.2,-5.37 -31.4,-16.15 -7.19,-10.79 -10.78,-26.54 -10.78,-47.3 0,-21.21 3.63,-37.12 10.9,-47.66 7.29,-10.59 18.22,-15.87 32.86,-15.87 6.03,0 11.42,1.56 16.2,4.64 4.74,3.09 8.89,7.74 12.42,13.95l0 -73.43zm53.6 57.24l19.79 0 0 122.17 -19.79 0 0 -122.17zm-1.19 -49.54l21.95 0 0 23.56 -21.95 0 0 -23.56zm96.13 63.5c-8.87,0 -15.71,4.09 -20.46,12.22 -4.75,8.13 -7.12,19.79 -7.12,34.95 0,15.11 2.37,26.69 7.12,34.75 4.75,8.05 11.59,12.1 20.46,12.1 8.84,0 15.65,-4.05 20.36,-12.1 4.7,-8.06 7.06,-19.65 7.06,-34.75 0,-15.16 -2.35,-26.82 -7.06,-34.95 -4.71,-8.13 -11.52,-12.22 -20.36,-12.22zm0 -16.36c15.6,0 27.63,5.5 36.04,16.43 8.39,10.99 12.62,26.7 12.62,47.11 0,20.36 -4.23,36.03 -12.67,47.01 -8.43,10.94 -20.47,16.43 -36,16.43 -15.63,0 -27.71,-5.5 -36.14,-16.43 -8.45,-10.98 -12.67,-26.66 -12.67,-47.01 0,-20.37 4.22,-36.04 12.67,-47.02 8.43,-11.02 20.52,-16.51 36.14,-16.51zm192.03 4.37l-1.77 17.87c-3.61,-1.88 -7.33,-3.27 -11.14,-4.24 -3.78,-0.92 -7.53,-1.4 -11.22,-1.4 -5.99,0 -10.57,1.4 -13.79,4.16 -3.22,2.78 -4.82,6.79 -4.82,12.04 0,4.07 1.08,7.49 3.29,10.3 2.21,2.76 7,6.05 14.37,9.89 12.74,6.66 21.25,12.75 25.57,18.33 4.29,5.53 6.46,12.23 6.46,20.04 0,10.79 -3.7,19.49 -11.14,26.14 -7.39,6.65 -17.28,9.98 -29.63,9.98 -5.31,0 -10.59,-0.56 -15.73,-1.68 -5.16,-1.12 -10.17,-2.84 -15.12,-5.1l1.65 -18.72c4.38,3.05 9.06,5.33 13.91,6.85 4.87,1.52 9.91,2.29 15.08,2.29 6.76,0 11.98,-1.57 15.64,-4.69 3.71,-3.12 5.57,-7.57 5.57,-13.27 0,-4.09 -1.21,-7.62 -3.66,-10.59 -2.42,-2.97 -8.45,-7.16 -18.02,-12.54l-0.49 -0.25c-18.69,-10.42 -28.03,-22.05 -28.03,-34.91 0,-10.62 3.42,-19.08 10.3,-25.3 6.88,-6.2 16.24,-9.33 28.11,-9.33 3.78,0 7.68,0.32 11.7,1 4.05,0.68 8.36,1.68 12.91,3.13zm74.6 11.99c-8.89,0 -15.72,4.09 -20.46,12.22 -4.75,8.13 -7.12,19.79 -7.12,34.95 0,15.11 2.37,26.69 7.12,34.75 4.74,8.05 11.58,12.1 20.46,12.1 8.84,0 15.64,-4.05 20.35,-12.1 4.71,-8.06 7.07,-19.65 7.07,-34.75 0,-15.16 -2.36,-26.82 -7.07,-34.95 -4.7,-8.13 -11.51,-12.22 -20.35,-12.22zm0 -16.36c15.6,0 27.62,5.5 36.04,16.43 8.39,10.99 12.61,26.7 12.61,47.11 0,20.36 -4.22,36.03 -12.67,47.01 -8.44,10.94 -20.46,16.43 -35.99,16.43 -15.64,0 -27.72,-5.5 -36.15,-16.43 -8.44,-10.98 -12.68,-26.66 -12.68,-47.01 0,-20.37 4.24,-36.04 12.68,-47.02 8.43,-11.02 20.52,-16.51 36.15,-16.51zm95.43 70.7c0,12.67 2.24,22.54 6.76,29.46 4.5,6.97 10.78,10.46 18.78,10.46 8.45,0 14.84,-3.97 19.14,-11.86 4.3,-7.89 6.47,-19.64 6.47,-35.23 0,-15.48 -2.13,-27.18 -6.39,-35.08 -4.3,-7.89 -10.62,-11.86 -19.02,-11.86 -8.13,0 -14.49,3.44 -18.99,10.33 -4.51,6.9 -6.76,16.67 -6.76,29.34l0 14.43zm-19.8 -125.53l19.8 0 0 73.43c3.54,-6.21 7.68,-10.86 12.46,-13.95 4.8,-3.08 10.22,-4.64 16.26,-4.64 14.6,0 25.53,5.29 32.76,15.87 7.29,10.54 10.92,26.45 10.92,47.66 0,20.69 -3.63,36.44 -10.83,47.25 -7.23,10.78 -17.69,16.2 -31.45,16.2 -6.96,0 -12.98,-1.65 -18.06,-4.9 -5.06,-3.24 -9.56,-8.41 -13.47,-15.55 0,0.29 0,0.72 0,1.28 -0.32,7.42 -0.68,12.99 -1.04,16.76l-17.35 0 0 -179.41zm171.36 55.07l-0.12 19.96c-0.92,-0.07 -1.81,-0.15 -2.58,-0.19 -0.8,-0.05 -1.57,-0.05 -2.37,-0.05 -8.78,0 -15.51,3.01 -20.24,8.99 -4.7,6.01 -7.03,14.63 -7.03,25.9l0 69.74 -19.79 0 0 -91.59c0,-4.53 -0.07,-9.3 -0.28,-14.31 -0.2,-4.96 -0.52,-10.38 -0.88,-16.27l18.39 0c0.36,5.57 0.63,9.77 0.75,12.67 0.12,2.84 0.17,5.53 0.17,8.05 3.13,-7.57 7.36,-13.3 12.61,-17.11 5.31,-3.84 11.68,-5.77 19.11,-5.77l2.24 0zm98.57 68.55l-67.68 0c0.41,13.71 3.46,24.13 9.25,31.22 5.75,7.09 14.03,10.62 24.78,10.62 4.54,0 9.04,-0.65 13.55,-1.92 4.46,-1.33 9.09,-3.29 13.86,-5.97l0.51 16.83c-4.44,2.45 -9.18,4.24 -14.32,5.42 -5.16,1.16 -10.74,1.76 -16.78,1.76 -17.13,0 -29.99,-5.26 -38.64,-15.8 -8.65,-10.55 -12.95,-26.25 -12.95,-47.18 0,-19.49 4.19,-34.99 12.55,-46.5 8.37,-11.51 19.59,-17.27 33.74,-17.27 12.95,0 23.28,5.13 30.96,15.39 7.68,10.22 11.54,24.01 11.54,41.29 0,3.69 0,6.33 -0.05,7.89 -0.04,1.56 -0.15,2.97 -0.31,4.21zm-19.19 -14.2l0 -0.92c0,-12.22 -1.98,-21.52 -5.87,-27.93 -3.94,-6.42 -9.61,-9.62 -17.09,-9.62 -7.77,0 -13.79,3.21 -18.06,9.57 -4.3,6.38 -6.88,16 -7.72,28.9l48.74 0zm174.94 -94.31l-0.49 20.16c-4.07,-2.64 -8.44,-4.69 -13.08,-6.05 -4.61,-1.36 -9.41,-2.03 -14.35,-2.03 -8.39,0 -14.91,2.08 -19.49,6.2 -4.6,4.17 -6.88,9.98 -6.88,17.51 0,9.55 8.36,20 25.06,31.36 3.04,2.04 5.38,3.65 7.03,4.84 11.78,8.06 19.94,15.55 24.4,22.49 4.47,6.93 6.73,15.07 6.73,24.41 0,14.31 -4.58,25.88 -13.72,34.66 -9.16,8.79 -21.15,13.15 -35.98,13.15 -6.11,0 -12.03,-0.68 -17.69,-2 -5.72,-1.33 -10.98,-3.29 -15.87,-5.9l2.02 -20c4.79,3.44 9.94,6.09 15.48,7.89 5.51,1.81 11.17,2.68 16.97,2.68 8.64,0 15.36,-2.31 20.15,-6.93 4.8,-4.61 7.15,-11.02 7.15,-19.28 0,-6.65 -1.68,-12.38 -5.06,-17.23 -3.37,-4.9 -11.62,-11.7 -24.81,-20.56 -13.51,-9.18 -22.4,-16.87 -26.66,-23.21 -4.3,-6.3 -6.43,-13.55 -6.43,-21.76 0,-13.47 4.26,-24.38 12.83,-32.79 8.56,-8.43 19.74,-12.64 33.46,-12.64 5.1,0 10.03,0.41 14.87,1.25 4.79,0.8 9.57,2.08 14.37,3.77zm77.52 56.08c-8.89,0 -15.71,4.09 -20.46,12.22 -4.75,8.13 -7.12,19.79 -7.12,34.95 0,15.11 2.37,26.69 7.12,34.75 4.75,8.05 11.58,12.1 20.46,12.1 8.84,0 15.65,-4.05 20.35,-12.1 4.71,-8.06 7.07,-19.65 7.07,-34.75 0,-15.16 -2.36,-26.82 -7.07,-34.95 -4.7,-8.13 -11.51,-12.22 -20.35,-12.22zm0 -16.36c15.6,0 27.62,5.5 36.04,16.43 8.39,10.99 12.62,26.7 12.62,47.11 0,20.36 -4.23,36.03 -12.67,47.01 -8.45,10.94 -20.47,16.43 -36,16.43 -15.64,0 -27.71,-5.5 -36.14,-16.43 -8.45,-10.98 -12.68,-26.66 -12.68,-47.01 0,-20.37 4.24,-36.04 12.68,-47.02 8.43,-11.02 20.51,-16.51 36.14,-16.51zm145.29 4.37l-0.48 18.32c-3.54,-2.08 -6.88,-3.61 -10.05,-4.49 -3.18,-0.92 -6.56,-1.36 -10.19,-1.36 -11.53,0 -20.22,3.73 -26.14,11.22 -5.87,7.46 -8.8,18.49 -8.8,33.03 0,15.87 3.05,28.03 9.18,36.44 6.1,8.42 14.87,12.63 26.25,12.63 3.46,0 6.83,-0.41 10.22,-1.25 3.37,-0.8 7.03,-2.16 10.93,-4.05l0.6 17.08c-4.14,1.64 -8.43,2.84 -12.91,3.65 -4.43,0.75 -8.92,1.16 -13.47,1.16 -16.17,0 -28.87,-5.61 -38.12,-16.88 -9.29,-11.22 -13.93,-26.8 -13.93,-46.78 0,-19.52 4.77,-34.91 14.25,-46.17 9.49,-11.27 22.48,-16.92 38.84,-16.92 3.87,0 7.76,0.36 11.67,1.05 3.94,0.71 8,1.81 12.14,3.32zm20.84 -1.96l19.79 0 0 122.17 -19.79 0 0 -122.17zm-1.2 -49.54l21.95 0 0 23.56 -21.95 0 0 -23.56zm135.52 115.92l-67.69 0c0.4,13.71 3.45,24.13 9.26,31.22 5.74,7.09 14.03,10.62 24.78,10.62 4.54,0 9.04,-0.65 13.54,-1.92 4.47,-1.33 9.11,-3.29 13.88,-5.97l0.49 16.83c-4.43,2.45 -9.16,4.24 -14.31,5.42 -5.15,1.16 -10.75,1.76 -16.77,1.76 -17.13,0 -29.99,-5.26 -38.65,-15.8 -8.64,-10.55 -12.95,-26.25 -12.95,-47.18 0,-19.49 4.19,-34.99 12.55,-46.5 8.36,-11.51 19.58,-17.27 33.73,-17.27 12.95,0 23.29,5.13 30.97,15.39 7.68,10.22 11.54,24.01 11.54,41.29 0,3.69 0,6.33 -0.05,7.89 -0.04,1.56 -0.15,2.97 -0.31,4.21zm-19.19 -14.2l0 -0.92c0,-12.22 -1.98,-21.52 -5.87,-27.93 -3.94,-6.42 -9.62,-9.62 -17.1,-9.62 -7.76,0 -13.78,3.21 -18.06,9.57 -4.3,6.38 -6.86,16 -7.72,28.9l48.75 0zm111.19 1.68c0,-12.67 -2.26,-22.44 -6.72,-29.34 -4.47,-6.89 -10.86,-10.33 -19.09,-10.33 -8.41,0 -14.72,3.97 -18.98,11.86 -4.23,7.89 -6.36,19.59 -6.36,35.08 0,15.67 2.13,27.42 6.36,35.31 4.26,7.86 10.57,11.78 18.98,11.78 8.23,0 14.63,-3.44 19.09,-10.38 4.46,-6.94 6.72,-16.8 6.72,-29.55l0 -14.43zm0 -111.1l20.02 0 0 179.41 -17.52 0c-0.41,-4.21 -0.7,-7.66 -0.81,-10.3 -0.08,-2.69 -0.17,-5.25 -0.17,-7.74 -4.1,7.18 -8.63,12.43 -13.66,15.64 -5.04,3.21 -11.06,4.81 -18.06,4.81 -13.75,0 -24.21,-5.37 -31.41,-16.15 -7.19,-10.79 -10.78,-26.54 -10.78,-47.3 0,-21.21 3.62,-37.12 10.89,-47.66 7.29,-10.59 18.22,-15.87 32.86,-15.87 6.04,0 11.42,1.56 16.21,4.64 4.74,3.09 8.89,7.74 12.42,13.95l0 -73.43zm111.75 118.56c-1.33,-0.07 -2.81,-0.15 -4.47,-0.19 -1.65,-0.05 -4.22,-0.05 -7.64,-0.05 -12.18,0 -21.23,2.13 -27.23,6.33 -5.94,4.25 -8.92,10.7 -8.92,19.41 0,6.89 1.86,12.26 5.55,16.11 3.67,3.84 8.81,5.77 15.4,5.77 9.35,0 16.21,-3.09 20.69,-9.22 4.41,-6.17 6.63,-15.74 6.63,-28.73l0 -9.42zm19.79 -14.19l0 51.92c0,4.84 0.08,9.09 0.28,12.74 0.19,3.65 0.52,7.1 0.88,10.39l-18.58 0 -1.88 -14.63c-3.87,5.77 -8.49,10.05 -13.93,12.87 -5.39,2.77 -11.77,4.17 -19.17,4.17 -10.75,0 -19.36,-3.33 -25.79,-9.94 -6.43,-6.62 -9.64,-15.55 -9.64,-26.86 0,-13.3 4.78,-23.41 14.31,-30.3 9.52,-6.9 23.61,-10.35 42.18,-10.35 0.4,0 1.85,0.08 4.41,0.29 2.55,0.19 4.92,0.35 7.13,0.44l0 -7.42c0,-8.66 -2.17,-15.3 -6.51,-19.88 -4.4,-4.57 -10.7,-6.86 -19.03,-6.86 -5.8,0 -11.18,1.05 -16.13,3.13 -4.94,2.04 -9.45,5.13 -13.52,9.17l-2.24 -18.07c5.42,-3.29 11.14,-5.85 17.16,-7.66 6.07,-1.81 12,-2.68 17.77,-2.68 15.24,0 26.11,3.69 32.59,11.1 6.47,7.37 9.69,20.21 9.69,38.44zm98.21 6.73c0,-12.67 -2.27,-22.44 -6.73,-29.34 -4.46,-6.89 -10.86,-10.33 -19.09,-10.33 -8.42,0 -14.72,3.97 -18.99,11.86 -4.22,7.89 -6.33,19.59 -6.33,35.08 0,15.67 2.11,27.42 6.33,35.31 4.27,7.86 10.58,11.78 18.99,11.78 8.23,0 14.64,-3.44 19.09,-10.38 4.46,-6.94 6.73,-16.8 6.73,-29.55l0 -14.43zm0 -111.1l20.02 0 0 179.41 -17.54 0c-0.41,-4.21 -0.68,-7.66 -0.8,-10.3 -0.08,-2.69 -0.17,-5.25 -0.17,-7.74 -4.1,7.18 -8.63,12.43 -13.67,15.64 -5.03,3.21 -11.07,4.81 -18.06,4.81 -13.74,0 -24.2,-5.37 -31.4,-16.15 -7.19,-10.79 -10.78,-26.54 -10.78,-47.3 0,-21.21 3.62,-37.12 10.89,-47.66 7.29,-10.59 18.22,-15.87 32.86,-15.87 6.03,0 11.42,1.56 16.2,4.64 4.77,3.09 8.9,7.74 12.45,13.95l0 -73.43zm57.69 152.47l21.47 0 -15.67 55.32 -17.63 0 11.82 -55.32zm165.29 -118.84l-26.7 84.46 52.27 0 -25.57 -84.46zm-11.08 -21.12l23.46 0 53.81 166.91 -22.24 0 -12.75 -43.77 -63.46 0 -13.56 43.77 -20.95 0 55.69 -166.91zm164.8 46.7l-0.48 18.32c-3.54,-2.08 -6.88,-3.61 -10.05,-4.49 -3.18,-0.92 -6.56,-1.36 -10.18,-1.36 -11.53,0 -20.23,3.73 -26.14,11.22 -5.87,7.46 -8.8,18.49 -8.8,33.03 0,15.87 3.05,28.03 9.18,36.44 6.1,8.42 14.87,12.63 26.25,12.63 3.46,0 6.83,-0.41 10.22,-1.25 3.37,-0.8 7.03,-2.16 10.94,-4.05l0.59 17.08c-4.14,1.64 -8.43,2.84 -12.91,3.65 -4.42,0.75 -8.92,1.16 -13.47,1.16 -16.17,0 -28.87,-5.61 -38.12,-16.88 -9.29,-11.22 -13.93,-26.8 -13.93,-46.78 0,-19.52 4.77,-34.91 14.25,-46.17 9.49,-11.27 22.48,-16.92 38.84,-16.92 3.86,0 7.76,0.36 11.66,1.05 3.94,0.71 8,1.81 12.14,3.32zm90.98 0l-0.48 18.32c-3.54,-2.08 -6.87,-3.61 -10.05,-4.49 -3.17,-0.92 -6.54,-1.36 -10.17,-1.36 -11.53,0 -20.22,3.73 -26.14,11.22 -5.87,7.46 -8.8,18.49 -8.8,33.03 0,15.87 3.04,28.03 9.17,36.44 6.1,8.42 14.87,12.63 26.26,12.63 3.46,0 6.83,-0.41 10.22,-1.25 3.37,-0.8 7.02,-2.16 10.93,-4.05l0.6 17.08c-4.14,1.64 -8.45,2.84 -12.91,3.65 -4.43,0.75 -8.92,1.16 -13.47,1.16 -16.17,0 -28.88,-5.61 -38.13,-16.88 -9.28,-11.22 -13.92,-26.8 -13.92,-46.78 0,-19.52 4.76,-34.91 14.24,-46.17 9.49,-11.27 22.48,-16.92 38.84,-16.92 3.87,0 7.76,0.36 11.66,1.05 3.95,0.71 8,1.81 12.15,3.32zm102.28 64.42l-67.68 0c0.41,13.71 3.46,24.13 9.25,31.22 5.75,7.09 14.03,10.62 24.78,10.62 4.54,0 9.06,-0.65 13.55,-1.92 4.46,-1.33 9.09,-3.29 13.88,-5.97l0.49 16.83c-4.44,2.45 -9.18,4.24 -14.32,5.42 -5.16,1.16 -10.74,1.76 -16.78,1.76 -17.13,0 -29.99,-5.26 -38.64,-15.8 -8.65,-10.55 -12.95,-26.25 -12.95,-47.18 0,-19.49 4.19,-34.99 12.56,-46.5 8.36,-11.51 19.58,-17.27 33.73,-17.27 12.95,0 23.28,5.13 30.96,15.39 7.68,10.22 11.54,24.01 11.54,41.29 0,3.69 0,6.33 -0.05,7.89 -0.04,1.56 -0.15,2.97 -0.31,4.21zm-19.19 -14.2l0 -0.92c0,-12.22 -1.98,-21.52 -5.87,-27.93 -3.94,-6.42 -9.61,-9.62 -17.09,-9.62 -7.76,0 -13.79,3.21 -18.06,9.57 -4.3,6.38 -6.88,16 -7.72,28.9l48.74 0zm103.04 -50.22l-1.77 17.87c-3.61,-1.88 -7.33,-3.27 -11.14,-4.24 -3.78,-0.92 -7.53,-1.4 -11.22,-1.4 -5.99,0 -10.57,1.4 -13.79,4.16 -3.21,2.78 -4.84,6.79 -4.84,12.04 0,4.07 1.09,7.49 3.29,10.3 2.23,2.76 7,6.05 14.37,9.89 12.75,6.66 21.27,12.75 25.57,18.33 4.3,5.53 6.47,12.23 6.47,20.04 0,10.79 -3.7,19.49 -11.14,26.14 -7.39,6.65 -17.3,9.98 -29.63,9.98 -5.33,0 -10.59,-0.56 -15.73,-1.68 -5.16,-1.12 -10.17,-2.84 -15.14,-5.1l1.66 -18.72c4.38,3.05 9.05,5.33 13.91,6.85 4.87,1.52 9.89,2.29 15.08,2.29 6.76,0 11.98,-1.57 15.64,-4.69 3.71,-3.12 5.57,-7.57 5.57,-13.27 0,-4.09 -1.22,-7.62 -3.66,-10.59 -2.42,-2.97 -8.46,-7.16 -18.02,-12.54l-0.49 -0.25c-18.7,-10.42 -28.03,-22.05 -28.03,-34.91 0,-10.62 3.42,-19.08 10.3,-25.3 6.88,-6.2 16.24,-9.33 28.1,-9.33 3.77,0 7.68,0.32 11.71,1 4.06,0.68 8.36,1.68 12.91,3.13zm74.59 11.99c-8.88,0 -15.72,4.09 -20.46,12.22 -4.75,8.13 -7.12,19.79 -7.12,34.95 0,15.11 2.37,26.69 7.12,34.75 4.74,8.05 11.58,12.1 20.46,12.1 8.85,0 15.66,-4.05 20.36,-12.1 4.7,-8.06 7.07,-19.65 7.07,-34.75 0,-15.16 -2.37,-26.82 -7.07,-34.95 -4.7,-8.13 -11.51,-12.22 -20.36,-12.22zm0 -16.36c15.6,0 27.63,5.5 36.04,16.43 8.41,10.99 12.64,26.7 12.64,47.11 0,20.36 -4.23,36.03 -12.68,47.01 -8.43,10.94 -20.46,16.43 -35.99,16.43 -15.64,0 -27.7,-5.5 -36.14,-16.43 -8.46,-10.98 -12.68,-26.66 -12.68,-47.01 0,-20.37 4.22,-36.04 12.68,-47.02 8.43,-11.02 20.5,-16.51 36.14,-16.51zm192.71 63.73c-1.32,-0.07 -2.82,-0.15 -4.46,-0.19 -1.66,-0.05 -4.22,-0.05 -7.64,-0.05 -12.19,0 -21.23,2.13 -27.24,6.33 -5.93,4.25 -8.91,10.7 -8.91,19.41 0,6.89 1.84,12.26 5.54,16.11 3.66,3.84 8.81,5.77 15.4,5.77 9.33,0 16.2,-3.09 20.67,-9.22 4.41,-6.17 6.63,-15.74 6.63,-28.73l0 -9.42zm19.78 -14.19l0 51.92c0,4.84 0.09,9.09 0.3,12.74 0.19,3.65 0.52,7.1 0.87,10.39l-18.57 0 -1.89 -14.63c-3.87,5.77 -8.49,10.05 -13.93,12.87 -5.38,2.77 -11.77,4.17 -19.17,4.17 -10.75,0 -19.34,-3.33 -25.78,-9.94 -6.43,-6.62 -9.64,-15.55 -9.64,-26.86 0,-13.3 4.79,-23.41 14.31,-30.3 9.54,-6.9 23.61,-10.35 42.19,-10.35 0.39,0 1.84,0.08 4.41,0.29 2.54,0.19 4.9,0.35 7.13,0.44l0 -7.42c0,-8.66 -2.18,-15.3 -6.52,-19.88 -4.39,-4.57 -10.7,-6.86 -19.02,-6.86 -5.79,0 -11.18,1.05 -16.13,3.13 -4.95,2.04 -9.45,5.13 -13.51,9.17l-2.25 -18.07c5.43,-3.29 11.14,-5.85 17.17,-7.66 6.07,-1.81 11.98,-2.68 17.77,-2.68 15.24,0 26.1,3.69 32.59,11.1 6.47,7.37 9.68,20.21 9.68,38.44zm115.14 -74.55l0 132.27 7.68 0c19.46,0 34.34,-5.69 44.55,-17.03 10.22,-11.35 15.33,-27.73 15.33,-49.18 0,-22.69 -4.7,-39.37 -14.17,-50.02 -9.4,-10.71 -24.16,-16.04 -44.19,-16.04l-9.21 0zm-20.76 -17.32l27.95 0c28.04,0 48.74,6.82 62.18,20.45 13.44,13.62 20.13,34.59 20.13,62.93 0,26.9 -7.12,47.51 -21.3,61.93 -14.21,14.39 -34.55,21.6 -61.01,21.6l-27.95 0 0 -166.91zm219.93 111.12l-67.68 0c0.41,13.71 3.46,24.13 9.25,31.22 5.75,7.09 14.03,10.62 24.78,10.62 4.54,0 9.06,-0.65 13.55,-1.92 4.46,-1.33 9.09,-3.29 13.88,-5.97l0.49 16.83c-4.43,2.45 -9.18,4.24 -14.32,5.42 -5.16,1.16 -10.74,1.76 -16.78,1.76 -17.12,0 -29.99,-5.26 -38.64,-15.8 -8.65,-10.55 -12.95,-26.25 -12.95,-47.18 0,-19.49 4.19,-34.99 12.56,-46.5 8.36,-11.51 19.59,-17.27 33.73,-17.27 12.95,0 23.28,5.13 30.96,15.39 7.68,10.22 11.54,24.01 11.54,41.29 0,3.69 0,6.33 -0.05,7.89 -0.04,1.56 -0.15,2.97 -0.31,4.21zm-19.19 -14.2l0 -0.92c0,-12.22 -1.97,-21.52 -5.87,-27.93 -3.94,-6.42 -9.61,-9.62 -17.09,-9.62 -7.76,0 -13.79,3.21 -18.06,9.57 -4.3,6.38 -6.88,16 -7.72,28.9l48.74 0zm98.17 -54.35l-0.12 19.96c-0.92,-0.07 -1.81,-0.15 -2.57,-0.19 -0.81,-0.05 -1.57,-0.05 -2.38,-0.05 -8.77,0 -15.51,3.01 -20.22,8.99 -4.7,6.01 -7.03,14.63 -7.03,25.9l0 69.74 -19.79 0 0 -91.59c0,-4.53 -0.08,-9.3 -0.28,-14.31 -0.22,-4.96 -0.54,-10.38 -0.9,-16.27l18.39 0c0.36,5.57 0.64,9.77 0.77,12.67 0.12,2.84 0.16,5.53 0.16,8.05 3.13,-7.57 7.36,-13.3 12.62,-17.11 5.3,-3.84 11.66,-5.77 19.09,-5.77l2.26 0zm98.56 68.55l-67.69 0c0.41,13.71 3.46,24.13 9.26,31.22 5.74,7.09 14.03,10.62 24.77,10.62 4.55,0 9.05,-0.65 13.54,-1.92 4.46,-1.33 9.1,-3.29 13.88,-5.97l0.49 16.83c-4.43,2.45 -9.16,4.24 -14.32,5.42 -5.14,1.16 -10.74,1.76 -16.77,1.76 -17.13,0 -29.99,-5.26 -38.64,-15.8 -8.64,-10.55 -12.95,-26.25 -12.95,-47.18 0,-19.49 4.19,-34.99 12.55,-46.5 8.36,-11.51 19.59,-17.27 33.74,-17.27 12.95,0 23.28,5.13 30.96,15.39 7.68,10.22 11.55,24.01 11.55,41.29 0,3.69 0,6.33 -0.05,7.89 -0.04,1.56 -0.15,2.97 -0.32,4.21zm-19.19 -14.2l0 -0.92c0,-12.22 -1.97,-21.52 -5.87,-27.93 -3.94,-6.42 -9.62,-9.62 -17.09,-9.62 -7.76,0 -13.8,3.21 -18.06,9.57 -4.3,6.38 -6.88,16 -7.72,28.9l48.74 0zm115.7 -50.22l-0.48 18.32c-3.54,-2.08 -6.88,-3.61 -10.06,-4.49 -3.18,-0.92 -6.55,-1.36 -10.18,-1.36 -11.53,0 -20.22,3.73 -26.14,11.22 -5.87,7.46 -8.79,18.49 -8.79,33.03 0,15.87 3.05,28.03 9.16,36.44 6.11,8.42 14.87,12.63 26.27,12.63 3.46,0 6.82,-0.41 10.21,-1.25 3.37,-0.8 7.03,-2.16 10.93,-4.05l0.61 17.08c-4.15,1.64 -8.44,2.84 -12.91,3.65 -4.42,0.75 -8.92,1.16 -13.48,1.16 -16.17,0 -28.88,-5.61 -38.11,-16.88 -9.29,-11.22 -13.93,-26.8 -13.93,-46.78 0,-19.52 4.75,-34.91 14.25,-46.17 9.49,-11.27 22.48,-16.92 38.84,-16.92 3.86,0 7.76,0.36 11.66,1.05 3.94,0.71 8,1.81 12.14,3.32zm21.32 -59.2l20.02 0 0 71.9c3.87,-5.77 8.34,-10.06 13.44,-12.87 5.1,-2.81 10.95,-4.2 17.53,-4.2 10.47,0 18.63,3.44 24.58,10.37 5.9,6.94 8.88,16.6 8.88,29.03l0 85.18 -20.04 0 0 -82.25c0,-8.3 -1.55,-14.51 -4.7,-18.6 -3.13,-4.13 -7.92,-6.17 -14.35,-6.17 -7.79,0 -13.96,2.97 -18.5,8.95 -4.54,5.92 -6.84,14.07 -6.84,24.41l0 0.71 0 72.96 -20.02 0 0 -179.41z"/>
    <path class="fil6" d="M5441.91 1652.26c-8.87,0 -15.71,4.09 -20.45,12.22 -4.77,8.13 -7.12,19.79 -7.12,34.95 0,15.11 2.35,26.69 7.12,34.75 4.74,8.05 11.58,12.1 20.45,12.1 8.86,0 15.66,-4.05 20.36,-12.1 4.7,-8.06 7.07,-19.65 7.07,-34.75 0,-15.16 -2.37,-26.82 -7.07,-34.95 -4.7,-8.13 -11.51,-12.22 -20.36,-12.22zm0 -16.36c15.61,0 27.63,5.5 36.04,16.43 8.4,10.99 12.63,26.7 12.63,47.11 0,20.36 -4.23,36.03 -12.68,47.01 -8.43,10.94 -20.46,16.43 -36,16.43 -15.63,0 -27.7,-5.5 -36.14,-16.43 -8.45,-10.98 -12.67,-26.66 -12.67,-47.01 0,-20.37 4.22,-36.04 12.67,-47.02 8.44,-11.02 20.52,-16.51 36.14,-16.51zm132.64 4.37l-1.77 17.87c-3.61,-1.88 -7.33,-3.27 -11.14,-4.24 -3.78,-0.92 -7.53,-1.4 -11.22,-1.4 -5.99,0 -10.57,1.4 -13.79,4.16 -3.22,2.78 -4.82,6.79 -4.82,12.04 0,4.07 1.08,7.49 3.29,10.3 2.21,2.76 7,6.05 14.37,9.89 12.74,6.66 21.25,12.75 25.57,18.33 4.29,5.53 6.46,12.23 6.46,20.04 0,10.79 -3.7,19.49 -11.14,26.14 -7.39,6.65 -17.28,9.98 -29.63,9.98 -5.31,0 -10.59,-0.56 -15.74,-1.68 -5.14,-1.12 -10.16,-2.84 -15.12,-5.1l1.65 -18.72c4.38,3.05 9.06,5.33 13.91,6.85 4.87,1.52 9.9,2.29 15.08,2.29 6.76,0 11.98,-1.57 15.64,-4.69 3.71,-3.12 5.57,-7.57 5.57,-13.27 0,-4.09 -1.21,-7.62 -3.66,-10.59 -2.42,-2.97 -8.45,-7.16 -18.02,-12.54l-0.49 -0.25c-18.69,-10.42 -28.03,-22.05 -28.03,-34.91 0,-10.62 3.42,-19.08 10.3,-25.3 6.88,-6.2 16.24,-9.33 28.11,-9.33 3.78,0 7.68,0.32 11.7,1 4.05,0.68 8.36,1.68 12.91,3.13zm79.38 -1.96l21.92 0 26.3 99.85 26.44 -99.85 19.22 0 -39.73 138.04c-4.5,15.4 -9.06,25.49 -13.68,30.3 -4.67,4.8 -11.06,7.21 -19.22,7.21 -2.7,0 -5.15,-0.15 -7.44,-0.48 -2.3,-0.28 -4.47,-0.81 -6.6,-1.52l1.77 -16.97c2.21,0.65 3.94,1.05 5.23,1.3 1.31,0.24 2.41,0.35 3.37,0.35 4.31,0 7.72,-1.33 10.19,-4 2.48,-2.64 4.67,-7.3 6.55,-13.95l3.78 -13.75 -38.09 -126.54zm271.45 -41.65l0 20.16c-4.46,-2.65 -9.16,-4.61 -14.07,-5.93 -4.9,-1.29 -10.12,-1.92 -15.64,-1.92 -16.41,0 -29.16,5.81 -38.24,17.4 -9.06,11.58 -13.61,27.82 -13.61,48.74 0,21.84 4.79,38.96 14.32,51.37 9.57,12.4 22.65,18.6 39.21,18.6 5.03,0 9.96,-0.63 14.8,-1.92 4.84,-1.32 9.57,-3.24 14.19,-5.8l0 19.76c-5.03,1.96 -10.12,3.4 -15.36,4.37 -5.22,0.91 -10.78,1.4 -16.68,1.4 -21.75,0 -39.3,-7.89 -52.66,-23.74 -13.34,-15.82 -20.01,-36.83 -20.01,-63.09 0,-25.73 6.56,-46.38 19.66,-61.89 13.12,-15.5 30.53,-23.25 52.16,-23.25 5.27,0 10.57,0.48 15.85,1.48 5.3,0.96 10.65,2.37 16.07,4.25zm83.77 102.97c-1.33,-0.07 -2.82,-0.15 -4.47,-0.19 -1.66,-0.05 -4.22,-0.05 -7.64,-0.05 -12.19,0 -21.23,2.13 -27.24,6.33 -5.93,4.25 -8.92,10.7 -8.92,19.41 0,6.89 1.84,12.26 5.54,16.11 3.66,3.84 8.82,5.77 15.4,5.77 9.33,0 16.21,-3.09 20.67,-9.22 4.41,-6.17 6.64,-15.74 6.64,-28.73l0 -9.42zm19.79 -14.19l0 51.92c0,4.84 0.08,9.09 0.28,12.74 0.19,3.65 0.52,7.1 0.88,10.39l-18.58 0 -1.89 -14.63c-3.87,5.77 -8.48,10.05 -13.92,12.87 -5.39,2.77 -11.78,4.17 -19.18,4.17 -10.74,0 -19.34,-3.33 -25.77,-9.94 -6.43,-6.62 -9.65,-15.55 -9.65,-26.86 0,-13.3 4.79,-23.41 14.31,-30.3 9.53,-6.9 23.61,-10.35 42.19,-10.35 0.39,0 1.84,0.08 4.41,0.29 2.55,0.19 4.9,0.35 7.13,0.44l0 -7.42c0,-8.66 -2.17,-15.3 -6.52,-19.88 -4.39,-4.57 -10.71,-6.86 -19.03,-6.86 -5.79,0 -11.18,1.05 -16.12,3.13 -4.95,2.04 -9.46,5.13 -13.52,9.17l-2.24 -18.07c5.43,-3.29 11.14,-5.85 17.17,-7.66 6.07,-1.81 11.98,-2.68 17.77,-2.68 15.24,0 26.11,3.69 32.59,11.1 6.47,7.37 9.69,20.21 9.69,38.44zm-31.09 -104.13l21.44 0 -33.34 41.6 -12.28 0 24.18 -41.6zm116.26 54.83l-0.12 19.96c-0.94,-0.07 -1.82,-0.15 -2.58,-0.19 -0.8,-0.05 -1.57,-0.05 -2.38,-0.05 -8.76,0 -15.51,3.01 -20.22,8.99 -4.7,6.01 -7.03,14.63 -7.03,25.9l0 69.74 -19.79 0 0 -91.59c0,-4.53 -0.07,-9.3 -0.28,-14.31 -0.21,-4.96 -0.53,-10.38 -0.88,-16.27l18.38 0c0.36,5.57 0.64,9.77 0.76,12.67 0.12,2.84 0.16,5.53 0.16,8.05 3.14,-7.57 7.36,-13.3 12.64,-17.11 5.3,-3.84 11.66,-5.77 19.09,-5.77l2.26 0zm87.26 4.13l-0.49 18.32c-3.54,-2.08 -6.86,-3.61 -10.05,-4.49 -3.18,-0.92 -6.55,-1.36 -10.18,-1.36 -11.53,0 -20.22,3.73 -26.14,11.22 -5.87,7.46 -8.8,18.49 -8.8,33.03 0,15.87 3.04,28.03 9.17,36.44 6.11,8.42 14.87,12.63 26.26,12.63 3.46,0 6.83,-0.41 10.22,-1.25 3.37,-0.8 7.03,-2.16 10.93,-4.05l0.6 17.08c-4.14,1.64 -8.43,2.84 -12.91,3.65 -4.43,0.75 -8.92,1.16 -13.47,1.16 -16.17,0 -28.88,-5.61 -38.13,-16.88 -9.28,-11.22 -13.91,-26.8 -13.91,-46.78 0,-19.52 4.75,-34.91 14.24,-46.17 9.49,-11.27 22.49,-16.92 38.84,-16.92 3.87,0 7.76,0.36 11.66,1.05 3.95,0.71 8,1.81 12.15,3.32zm102.27 64.42l-67.68 0c0.41,13.71 3.46,24.13 9.26,31.22 5.74,7.09 14.02,10.62 24.77,10.62 4.56,0 9.06,-0.65 13.55,-1.92 4.46,-1.33 9.09,-3.29 13.88,-5.97l0.49 16.83c-4.43,2.45 -9.18,4.24 -14.32,5.42 -5.14,1.16 -10.74,1.76 -16.78,1.76 -17.12,0 -29.99,-5.26 -38.64,-15.8 -8.63,-10.55 -12.95,-26.25 -12.95,-47.18 0,-19.49 4.19,-34.99 12.56,-46.5 8.36,-11.51 19.58,-17.27 33.73,-17.27 12.96,0 23.28,5.13 30.96,15.39 7.69,10.22 11.55,24.01 11.55,41.29 0,3.69 0,6.33 -0.05,7.89 -0.04,1.56 -0.16,2.97 -0.32,4.21zm-19.19 -14.2l0 -0.92c0,-12.22 -1.97,-21.52 -5.87,-27.93 -3.94,-6.42 -9.62,-9.62 -17.1,-9.62 -7.76,0 -13.79,3.21 -18.06,9.57 -4.3,6.38 -6.88,16 -7.72,28.9l48.74 0zm45.57 -109.42l19.79 0 0 179.41 -19.79 0 0 -179.41zm134.32 123.62l-67.68 0c0.41,13.71 3.46,24.13 9.25,31.22 5.76,7.09 14.03,10.62 24.78,10.62 4.54,0 9.06,-0.65 13.55,-1.92 4.46,-1.33 9.09,-3.29 13.88,-5.97l0.49 16.83c-4.43,2.45 -9.18,4.24 -14.32,5.42 -5.16,1.16 -10.74,1.76 -16.78,1.76 -17.12,0 -29.99,-5.26 -38.64,-15.8 -8.66,-10.55 -12.96,-26.25 -12.96,-47.18 0,-19.49 4.19,-34.99 12.56,-46.5 8.36,-11.51 19.59,-17.27 33.73,-17.27 12.95,0 23.28,5.13 30.96,15.39 7.68,10.22 11.54,24.01 11.54,41.29 0,3.69 0,6.33 -0.05,7.89 -0.03,1.56 -0.15,2.97 -0.31,4.21zm-19.19 -14.2l0 -0.92c0,-12.22 -1.97,-21.52 -5.87,-27.93 -3.94,-6.42 -9.62,-9.62 -17.1,-9.62 -7.76,0 -13.79,3.21 -18.06,9.57 -4.3,6.38 -6.88,16 -7.72,28.9l48.74 0zm103.04 -50.22l-1.77 17.87c-3.61,-1.88 -7.32,-3.27 -11.14,-4.24 -3.78,-0.92 -7.53,-1.4 -11.22,-1.4 -5.99,0 -10.57,1.4 -13.79,4.16 -3.21,2.78 -4.82,6.79 -4.82,12.04 0,4.07 1.08,7.49 3.28,10.3 2.22,2.76 7,6.05 14.36,9.89 12.75,6.66 21.27,12.75 25.57,18.33 4.31,5.53 6.47,12.23 6.47,20.04 0,10.79 -3.7,19.49 -11.13,26.14 -7.39,6.65 -17.3,9.98 -29.63,9.98 -5.31,0 -10.59,-0.56 -15.73,-1.68 -5.16,-1.12 -10.17,-2.84 -15.12,-5.1l1.65 -18.72c4.37,3.05 9.06,5.33 13.91,6.85 4.87,1.52 9.91,2.29 15.09,2.29 6.76,0 11.97,-1.57 15.63,-4.69 3.71,-3.12 5.57,-7.57 5.57,-13.27 0,-4.09 -1.22,-7.62 -3.66,-10.59 -2.41,-2.97 -8.46,-7.16 -18.02,-12.54l-0.48 -0.25c-18.7,-10.42 -28.03,-22.05 -28.03,-34.91 0,-10.62 3.42,-19.08 10.29,-25.3 6.88,-6.2 16.24,-9.33 28.11,-9.33 3.78,0 7.68,0.32 11.7,1 4.06,0.68 8.36,1.68 12.91,3.13z"/>
   </g>
   <path class="fil6" d="M2201.27 1991.25l82.97 0 0 23.09 -52.81 0 0 47.86 50.67 0 0 23.08 -50.67 0 0 72.87 -30.16 0 0 -166.91zm160.97 107.5c-0.48,0 -1.25,-0.08 -2.38,-0.24 -3.29,-0.32 -5.94,-0.48 -8,-0.48 -10.78,0 -18.82,1.88 -24.11,5.7 -5.31,3.81 -7.98,9.53 -7.98,17.23 0,5.86 1.66,10.46 4.92,13.75 3.27,3.29 7.79,4.93 13.62,4.93 8.26,0 14.28,-2.64 18.13,-7.94 3.87,-5.29 5.8,-13.63 5.8,-24.97l0 -7.98zm28.23 -13.79l0 48.66c0,5.18 0.12,9.7 0.36,13.56 0.25,3.88 0.56,7.53 1.05,10.98l-26.95 0 -1.77 -15.34c-4.47,6.09 -9.56,10.57 -15.36,13.54 -5.76,2.97 -12.3,4.45 -19.62,4.45 -10.75,0 -19.44,-3.44 -26.02,-10.39 -6.6,-6.93 -9.89,-16.07 -9.89,-27.41 0,-13.63 4.98,-24.01 14.92,-31.1 9.92,-7.13 24.33,-10.71 43.26,-10.71 2.37,0 4.47,0 6.3,0.05 1.85,0.04 3.66,0.07 5.48,0.07l0 -5.17c0,-7.42 -2.14,-13.11 -6.35,-17.12 -4.27,-3.96 -10.35,-5.97 -18.3,-5.97 -5.98,0 -11.55,0.97 -16.73,2.93 -5.23,1.96 -10.09,4.9 -14.64,8.78l-1.89 -23.21c6.52,-3.16 13.11,-5.49 19.75,-7.05 6.63,-1.57 13.14,-2.37 19.49,-2.37 17.3,0 29.4,3.81 36.41,11.46 7,7.62 10.49,21.41 10.49,41.36zm107.93 -47.54l-1.51 23.46c-3.14,-1.81 -6.56,-3.22 -10.26,-4.17 -3.7,-1.01 -7.36,-1.48 -10.94,-1.48 -9.94,0 -17.53,3.41 -22.88,10.22 -5.36,6.77 -8,16.51 -8,29.21 0,13.76 2.7,24.33 8.13,31.71 5.42,7.42 13.14,11.11 23.21,11.11 3.85,0 7.72,-0.53 11.53,-1.52 3.87,-1.01 7.61,-2.52 11.22,-4.45l1.17 23.53c-5.04,1.88 -10.09,3.27 -15.25,4.16 -5.14,0.92 -10.52,1.37 -16.07,1.37 -16.64,0 -29.89,-5.73 -39.66,-17.19 -9.76,-11.51 -14.67,-26.9 -14.67,-46.26 0,-20.52 5.04,-36.48 15.04,-47.86 10.02,-11.42 23.97,-17.12 41.86,-17.12 4.19,0 8.53,0.45 13.07,1.37 4.59,0.88 9.26,2.2 14.04,3.92zm18.97 -2.64l28.96 0 0 79.32c0,7.42 1.34,12.99 3.94,16.63 2.67,3.69 6.72,5.53 12.24,5.53 6.5,0 11.62,-2.59 15.27,-7.84 3.66,-5.26 5.47,-12.55 5.47,-21.98l0 -71.67 28.96 0 0 94.68c0,7.53 0.07,13.3 0.24,17.36 0.15,4.04 0.39,7.81 0.68,11.34l-26.22 0c-0.32,-3.05 -0.56,-6.09 -0.71,-9.1 -0.17,-3.04 -0.24,-6.13 -0.24,-9.26 -3.14,6.66 -7.65,11.83 -13.57,15.48 -5.86,3.68 -12.62,5.53 -20.25,5.53 -11.31,0 -19.92,-3.48 -25.87,-10.45 -5.92,-6.94 -8.9,-17.12 -8.9,-30.5l0 -85.06zm125.97 -56.52l28.94 0 0 179.9 -28.94 0 0 -179.9zm92.64 22.61l0 33.92 24.05 0 0 20.92 -24.05 0 0 59.93c0,9.18 1.01,15.19 3.01,18.04 2.01,2.84 5.62,4.28 10.9,4.28 1.81,0 3.62,-0.15 5.43,-0.48 1.82,-0.32 3.78,-0.77 6,-1.41l0 21.4c-3.7,0.89 -7.24,1.52 -10.62,1.97 -3.34,0.44 -6.63,0.65 -9.89,0.65 -12.38,0 -21.06,-2.94 -26.05,-8.79 -4.99,-5.81 -7.48,-17.63 -7.48,-35.43l0 -60.17 -19.79 0 0 -20.92 19.79 0 0 -25.34 28.71 -8.58zm104.68 97.89c-0.49,0 -1.26,-0.08 -2.38,-0.24 -3.29,-0.32 -5.96,-0.48 -8,-0.48 -10.78,0 -18.82,1.88 -24.13,5.7 -5.3,3.81 -7.96,9.53 -7.96,17.23 0,5.86 1.65,10.46 4.9,13.75 3.27,3.29 7.79,4.93 13.64,4.93 8.24,0 14.28,-2.64 18.13,-7.94 3.86,-5.29 5.8,-13.63 5.8,-24.97l0 -7.98zm28.21 -13.79l0 48.66c0,5.18 0.12,9.7 0.36,13.56 0.25,3.88 0.58,7.53 1.07,10.98l-26.97 0 -1.76 -15.34c-4.46,6.09 -9.57,10.57 -15.36,13.54 -5.75,2.97 -12.31,4.45 -19.63,4.45 -10.75,0 -19.43,-3.44 -26.02,-10.39 -6.6,-6.93 -9.89,-16.07 -9.89,-27.41 0,-13.63 4.99,-24.01 14.93,-31.1 9.92,-7.13 24.32,-10.71 43.26,-10.71 2.38,0 4.47,0 6.32,0.05 1.85,0.04 3.66,0.07 5.48,0.07l0 -5.17c0,-7.42 -2.14,-13.11 -6.36,-17.12 -4.27,-3.96 -10.35,-5.97 -18.3,-5.97 -5.99,0 -11.54,0.97 -16.73,2.93 -5.23,1.96 -10.09,4.9 -14.64,8.78l-1.88 -23.21c6.52,-3.16 13.1,-5.49 19.74,-7.05 6.64,-1.57 13.16,-2.37 19.49,-2.37 17.3,0 29.42,3.81 36.41,11.46 7,7.62 10.49,21.41 10.49,41.36zm98.49 5.33c0,-11.27 -1.96,-20 -5.86,-26.21 -3.95,-6.23 -9.42,-9.35 -16.38,-9.35 -7.23,0 -12.69,3.53 -16.35,10.62 -3.71,7.1 -5.57,17.51 -5.57,31.26 0,13.88 1.82,24.3 5.48,31.31 3.66,7.02 9.12,10.5 16.43,10.5 6.96,0 12.43,-3.12 16.38,-9.33 3.9,-6.22 5.86,-14.95 5.86,-26.22l0 -12.58zm0 -112.04l28.72 0 0 179.9 -26.46 0c-0.48,-4.3 -0.76,-7.81 -0.88,-10.5 -0.12,-2.73 -0.2,-5.37 -0.2,-8.05 -3.99,7.33 -8.65,12.7 -13.95,16.11 -5.31,3.4 -11.58,5.08 -18.9,5.08 -13.75,0 -24.33,-5.53 -31.73,-16.56 -7.44,-11.02 -11.14,-26.85 -11.14,-47.41 0,-21.2 3.66,-37.31 11.02,-48.26 7.33,-10.95 18.02,-16.43 32.1,-16.43 6.98,0 12.98,1.57 18.01,4.66 5.03,3.08 9.49,7.96 13.42,14.66l0 -73.2zm189.56 112.04c0,-11.27 -1.98,-20 -5.87,-26.21 -3.94,-6.23 -9.4,-9.35 -16.37,-9.35 -7.23,0 -12.7,3.53 -16.37,10.62 -3.71,7.1 -5.55,17.51 -5.55,31.26 0,13.88 1.81,24.3 5.47,31.31 3.66,7.02 9.13,10.5 16.44,10.5 6.96,0 12.43,-3.12 16.37,-9.33 3.9,-6.22 5.87,-14.95 5.87,-26.22l0 -12.58zm0 -112.04l28.72 0 0 179.9 -26.46 0c-0.49,-4.3 -0.78,-7.81 -0.89,-10.5 -0.12,-2.73 -0.19,-5.37 -0.19,-8.05 -3.99,7.33 -8.65,12.7 -13.96,16.11 -5.3,3.4 -11.58,5.08 -18.9,5.08 -13.74,0 -24.32,-5.53 -31.72,-16.56 -7.44,-11.02 -11.14,-26.85 -11.14,-47.41 0,-21.2 3.66,-37.31 11.02,-48.26 7.32,-10.95 18,-16.43 32.08,-16.43 7,0 12.99,1.57 18.02,4.66 5.04,3.08 9.49,7.96 13.43,14.66l0 -73.2zm151.73 126.02l-69.24 0c0.52,11.59 3.57,20.29 9.09,26.14 5.47,5.82 13.31,8.75 23.44,8.75 5.2,0 10.3,-0.77 15.32,-2.25 5.07,-1.48 10.02,-3.68 14.9,-6.7l0 22.45c-5.37,2.68 -10.86,4.65 -16.58,5.97 -5.67,1.28 -11.65,1.93 -17.97,1.93 -18.3,0 -32.46,-5.53 -42.42,-16.56 -9.98,-11.06 -14.97,-26.77 -14.97,-47.13 0,-19.96 4.63,-35.75 13.91,-47.34 9.29,-11.58 21.92,-17.4 37.97,-17.4 14.07,0 25.38,5.61 33.95,16.8 8.56,11.22 12.86,26.21 12.86,45.02 0,1.57 0,3.24 -0.05,5.01 -0.04,1.76 -0.12,3.53 -0.19,5.32zm-27.02 -17.55l0 -2.24c0,-10.3 -1.7,-18.16 -5.06,-23.57 -3.39,-5.4 -8.38,-8.09 -15.01,-8.09 -6.9,0 -12.23,2.76 -15.96,8.33 -3.74,5.53 -5.96,14.07 -6.69,25.57l42.72 0zm218.8 -91.06l-1.21 25.93c-4.63,-2.97 -9.37,-5.13 -14.24,-6.46 -4.86,-1.31 -10.57,-2 -17.09,-2 -14.59,0 -26.01,5.33 -34.27,15.94 -8.24,10.67 -12.38,25.46 -12.38,44.39 0,19.95 4.31,35.47 12.92,46.49 8.6,11.02 20.62,16.56 36.1,16.56 5.2,0 10.25,-0.73 15.26,-2.17 4.97,-1.45 9.96,-3.64 14.91,-6.54l0.92 26.5c-5.52,2.13 -11.22,3.7 -17.13,4.74 -5.94,0.99 -12.22,1.52 -18.83,1.52 -22.99,0 -41.45,-7.78 -55.37,-23.33 -13.91,-15.51 -20.88,-36.31 -20.88,-62.28 0,-26.54 6.81,-47.59 20.45,-63.1 13.62,-15.5 32.01,-23.25 55.13,-23.25 5.79,0 11.65,0.57 17.53,1.69 5.9,1.16 11.95,2.92 18.18,5.37zm23.89 39.11l28.7 0 0 123.38 -28.7 0 0 -123.38zm-0.72 -51.7l30.16 0 0 28.13 -30.16 0 0 -28.13zm152.26 121.19l-69.25 0c0.52,11.59 3.58,20.29 9.08,26.14 5.48,5.82 13.31,8.75 23.45,8.75 5.2,0 10.29,-0.77 15.33,-2.25 5.06,-1.48 10,-3.68 14.88,-6.7l0 22.45c-5.37,2.68 -10.86,4.65 -16.58,5.97 -5.66,1.28 -11.65,1.93 -17.96,1.93 -18.3,0 -32.47,-5.53 -42.43,-16.56 -9.98,-11.06 -14.95,-26.77 -14.95,-47.13 0,-19.96 4.61,-35.75 13.9,-47.34 9.29,-11.58 21.92,-17.4 37.97,-17.4 14.08,0 25.38,5.61 33.95,16.8 8.56,11.22 12.88,26.21 12.88,45.02 0,1.57 0,3.24 -0.05,5.01 -0.04,1.76 -0.12,3.53 -0.19,5.32zm-27.04 -17.55l0 -2.24c0,-10.3 -1.69,-18.16 -5.06,-23.57 -3.39,-5.4 -8.36,-8.09 -15.01,-8.09 -6.91,0 -12.24,2.76 -15.97,8.33 -3.74,5.53 -5.95,14.07 -6.68,25.57l42.71 0zm146.89 -13.75l0 85.18 -28.95 0 0 -79.41c0,-7.69 -1.36,-13.26 -4.07,-16.79 -2.73,-3.53 -7,-5.29 -12.78,-5.29 -6.16,0 -11.02,2.56 -14.64,7.73 -3.63,5.18 -5.43,12.22 -5.43,21.17l0 0.72 0 71.87 -28.96 0 0 -94.8c0,-5.57 -0.08,-10.66 -0.29,-15.27 -0.19,-4.65 -0.52,-9.06 -0.87,-13.31l26.21 0c0.08,1.01 0.25,2.69 0.49,4.93 0.49,5.9 0.73,10.35 0.73,13.31 2.97,-6.58 7.48,-11.71 13.47,-15.36 6.03,-3.68 12.79,-5.53 20.35,-5.53 11.31,0 19.91,3.5 25.87,10.47 5.9,6.93 8.87,17.07 8.87,30.37zm107.66 -35.55l-1.53 23.46c-3.14,-1.81 -6.56,-3.22 -10.26,-4.17 -3.7,-1.01 -7.36,-1.48 -10.93,-1.48 -9.93,0 -17.53,3.41 -22.88,10.22 -5.35,6.77 -8,16.51 -8,29.21 0,13.76 2.7,24.33 8.12,31.71 5.43,7.42 13.16,11.11 23.22,11.11 3.85,0 7.72,-0.53 11.53,-1.52 3.87,-1.01 7.61,-2.52 11.22,-4.45l1.16 23.53c-5.03,1.88 -10.1,3.27 -15.24,4.16 -5.14,0.92 -10.54,1.37 -16.07,1.37 -16.66,0 -29.89,-5.73 -39.66,-17.19 -9.77,-11.51 -14.67,-26.9 -14.67,-46.26 0,-20.52 5.02,-36.48 15.04,-47.86 10.02,-11.42 23.96,-17.12 41.86,-17.12 4.18,0 8.54,0.45 13.07,1.37 4.58,0.88 9.25,2.2 14.04,3.92zm19.94 -2.64l28.71 0 0 123.38 -28.71 0 0 -123.38zm-0.71 -51.7l30.16 0 0 28.13 -30.16 0 0 -28.13zm120.64 115.67c-0.48,0 -1.25,-0.08 -2.38,-0.24 -3.29,-0.32 -5.94,-0.48 -8,-0.48 -10.78,0 -18.82,1.88 -24.13,5.7 -5.3,3.81 -7.96,9.53 -7.96,17.23 0,5.86 1.66,10.46 4.91,13.75 3.26,3.29 7.8,4.93 13.63,4.93 8.26,0 14.28,-2.64 18.13,-7.94 3.87,-5.29 5.8,-13.63 5.8,-24.97l0 -7.98zm28.23 -13.79l0 48.66c0,5.18 0.12,9.7 0.36,13.56 0.25,3.88 0.56,7.53 1.05,10.98l-26.95 0 -1.78 -15.34c-4.46,6.09 -9.56,10.57 -15.36,13.54 -5.75,2.97 -12.29,4.45 -19.62,4.45 -10.74,0 -19.43,-3.44 -26.03,-10.39 -6.59,-6.93 -9.88,-16.07 -9.88,-27.41 0,-13.63 4.97,-24.01 14.91,-31.1 9.93,-7.13 24.32,-10.71 43.27,-10.71 2.37,0 4.46,0 6.3,0.05 1.85,0.04 3.66,0.07 5.48,0.07l0 -5.17c0,-7.42 -2.14,-13.11 -6.36,-17.12 -4.27,-3.96 -10.35,-5.97 -18.3,-5.97 -5.99,0 -11.54,0.97 -16.72,2.93 -5.24,1.96 -10.09,4.9 -14.64,8.78l-1.89 -23.21c6.53,-3.16 13.11,-5.49 19.74,-7.05 6.64,-1.57 13.16,-2.37 19.51,-2.37 17.29,0 29.4,3.81 36.4,11.46 7,7.62 10.49,21.41 10.49,41.36zm96.27 -48.01l-0.96 23.29c-4.23,-2.01 -8.42,-3.53 -12.59,-4.49 -4.14,-1.01 -8.45,-1.48 -12.91,-1.48 -5.84,0 -10.3,1.08 -13.44,3.24 -3.14,2.13 -4.7,5.17 -4.7,9.1 0,3.44 1.08,6.3 3.3,8.61 2.2,2.29 7.72,5.5 16.48,9.59 12.88,5.93 21.32,11.55 25.46,16.83 4.1,5.26 6.15,12.11 6.15,20.45 0,11.75 -4.14,21.12 -12.43,28.18 -8.28,7.01 -19.34,10.54 -33.25,10.54 -5.38,0 -10.95,-0.52 -16.52,-1.52 -5.63,-1 -11.1,-2.52 -16.46,-4.57l0.97 -25.17c5.1,3.04 10.45,5.37 16.09,6.97 5.62,1.61 11.05,2.41 16.31,2.41 6.17,0 10.9,-1.18 14.32,-3.46 3.42,-2.32 5.16,-5.56 5.16,-9.69 0,-5.18 -5.8,-10.43 -17.33,-15.76l-1.91 -0.92c-12.57,-5.81 -21.17,-11.54 -25.84,-17.28 -4.7,-5.73 -7.03,-12.86 -7.03,-21.49 0,-11.22 3.85,-20.32 11.54,-27.37 7.68,-7.06 17.65,-10.59 29.92,-10.59 5.35,0 10.45,0.36 15.4,1.13 4.94,0.71 9.73,1.88 14.27,3.44zm173.4 -43.06l-1.41 25.46c-5.51,-2.28 -10.69,-4.01 -15.55,-5.17 -4.88,-1.15 -9.42,-1.77 -13.64,-1.77 -7.92,0 -14.04,1.69 -18.26,5.06 -4.21,3.37 -6.36,8.17 -6.36,14.43 0,4.6 1.58,8.82 4.67,12.58 3.1,3.74 10.1,9.02 20.99,15.84l2.45 1.52c23.57,14.95 35.35,31.15 35.35,48.63 0,14.99 -5.03,27.17 -15.09,36.42 -10.05,9.26 -23.19,13.91 -39.43,13.91 -6.67,0 -13.31,-0.71 -19.87,-2.11 -6.56,-1.41 -12.55,-3.37 -18.06,-5.87l2.27 -25.7c5.86,3.29 11.65,5.74 17.37,7.39 5.67,1.64 11.31,2.48 16.89,2.48 7.92,0 14.19,-1.92 18.82,-5.81 4.63,-3.89 6.95,-9.06 6.95,-15.55 0,-10.18 -8.55,-20.56 -25.64,-31.1 -2.49,-1.57 -4.39,-2.78 -5.63,-3.53 -12.67,-7.98 -21.31,-15.36 -25.94,-22.13 -4.63,-6.77 -6.95,-14.83 -6.95,-24.13 0,-14.11 4.77,-25.3 14.35,-33.63 9.56,-8.34 22.6,-12.51 39,-12.51 5.4,0 10.9,0.45 16.41,1.37 5.56,0.88 10.98,2.2 16.33,3.92zm81.31 59.88c-7.41,0 -13.1,3.7 -17.13,11.12 -3.97,7.36 -5.99,17.99 -5.99,31.73 0,13.64 2.02,24.09 5.99,31.39 4.04,7.26 9.72,10.91 17.13,10.91 7.52,0 13.23,-3.57 17.13,-10.75 3.9,-7.17 5.83,-17.68 5.83,-31.56 0,-13.83 -1.97,-24.44 -5.96,-31.82 -3.97,-7.33 -9.65,-11.03 -17,-11.03zm-0.24 -21.64c17.17,0 30.44,5.53 39.69,16.64 9.29,11.05 13.92,26.97 13.92,47.61 0,20.61 -4.63,36.48 -13.92,47.54 -9.25,11.12 -22.52,16.64 -39.69,16.64 -16.97,0 -30.13,-5.57 -39.37,-16.67 -9.29,-11.14 -13.91,-26.97 -13.91,-47.51 0,-20.59 4.62,-36.44 13.84,-47.58 9.23,-11.1 22.39,-16.67 39.44,-16.67zm155.95 5.29l-1.53 23.46c-3.14,-1.81 -6.56,-3.22 -10.25,-4.17 -3.7,-1.01 -7.36,-1.48 -10.93,-1.48 -9.94,0 -17.54,3.41 -22.9,10.22 -5.34,6.77 -8,16.51 -8,29.21 0,13.76 2.71,24.33 8.13,31.71 5.43,7.42 13.16,11.11 23.21,11.11 3.85,0 7.72,-0.53 11.53,-1.52 3.87,-1.01 7.61,-2.52 11.22,-4.45l1.16 23.53c-5.03,1.88 -10.09,3.27 -15.24,4.16 -5.14,0.92 -10.53,1.37 -16.07,1.37 -16.65,0 -29.88,-5.73 -39.66,-17.19 -9.77,-11.51 -14.67,-26.9 -14.67,-46.26 0,-20.52 5.03,-36.48 15.04,-47.86 10.02,-11.42 23.98,-17.12 41.86,-17.12 4.2,0 8.54,0.45 13.08,1.37 4.58,0.88 9.26,2.2 14.04,3.92zm19.94 -2.64l28.71 0 0 123.38 -28.71 0 0 -123.38zm-0.71 -51.7l30.16 0 0 28.13 -30.16 0 0 -28.13zm120.63 115.67c-0.48,0 -1.25,-0.08 -2.38,-0.24 -3.28,-0.32 -5.94,-0.48 -8,-0.48 -10.78,0 -18.81,1.88 -24.11,5.7 -5.31,3.81 -7.98,9.53 -7.98,17.23 0,5.86 1.67,10.46 4.92,13.75 3.27,3.29 7.79,4.93 13.64,4.93 8.24,0 14.27,-2.64 18.12,-7.94 3.88,-5.29 5.8,-13.63 5.8,-24.97l0 -7.98zm28.23 -13.79l0 48.66c0,5.18 0.12,9.7 0.35,13.56 0.25,3.88 0.56,7.53 1.05,10.98l-26.95 0 -1.77 -15.34c-4.46,6.09 -9.56,10.57 -15.36,13.54 -5.74,2.97 -12.3,4.45 -19.62,4.45 -10.75,0 -19.44,-3.44 -26.02,-10.39 -6.6,-6.93 -9.89,-16.07 -9.89,-27.41 0,-13.63 4.98,-24.01 14.92,-31.1 9.92,-7.13 24.33,-10.71 43.26,-10.71 2.37,0 4.47,0 6.32,0.05 1.84,0.04 3.66,0.07 5.47,0.07l0 -5.17c0,-7.42 -2.14,-13.11 -6.35,-17.12 -4.27,-3.96 -10.35,-5.97 -18.3,-5.97 -5.98,0 -11.55,0.97 -16.73,2.93 -5.23,1.96 -10.09,4.9 -14.64,8.78l-1.89 -23.21c6.52,-3.16 13.11,-5.49 19.75,-7.05 6.63,-1.57 13.14,-2.37 19.5,-2.37 17.3,0 29.4,3.81 36.4,11.46 7,7.62 10.49,21.41 10.49,41.36zm30.2 -106.7l28.95 0 0 179.9 -28.95 0 0 -179.9zm151.76 126.02l-69.23 0c0.52,11.59 3.56,20.29 9.08,26.14 5.47,5.82 13.31,8.75 23.43,8.75 5.2,0 10.3,-0.77 15.34,-2.25 5.06,-1.48 10,-3.68 14.88,-6.7l0 22.45c-5.36,2.68 -10.86,4.65 -16.58,5.97 -5.66,1.28 -11.65,1.93 -17.96,1.93 -18.3,0 -32.47,-5.53 -42.43,-16.56 -9.98,-11.06 -14.95,-26.77 -14.95,-47.13 0,-19.96 4.62,-35.75 13.9,-47.34 9.29,-11.58 21.92,-17.4 37.97,-17.4 14.08,0 25.39,5.61 33.95,16.8 8.55,11.22 12.86,26.21 12.86,45.02 0,1.57 0,3.24 -0.05,5.01 -0.03,1.76 -0.12,3.53 -0.19,5.32zm-27.02 -17.55l0 -2.24c0,-10.3 -1.68,-18.16 -5.06,-23.57 -3.38,-5.4 -8.37,-8.09 -15,-8.09 -6.92,0 -12.24,2.76 -15.97,8.33 -3.74,5.53 -5.94,14.07 -6.69,25.57l42.72 0zm117.66 -49.78l-0.95 23.29c-4.22,-2.01 -8.41,-3.53 -12.6,-4.49 -4.14,-1.01 -8.44,-1.48 -12.91,-1.48 -5.83,0 -10.3,1.08 -13.43,3.24 -3.14,2.13 -4.7,5.17 -4.7,9.1 0,3.44 1.09,6.3 3.31,8.61 2.2,2.29 7.71,5.5 16.48,9.59 12.87,5.93 21.32,11.55 25.45,16.83 4.1,5.26 6.15,12.11 6.15,20.45 0,11.75 -4.14,21.12 -12.41,28.18 -8.29,7.01 -19.36,10.54 -33.25,10.54 -5.4,0 -10.95,-0.52 -16.53,-1.52 -5.62,-1 -11.1,-2.52 -16.44,-4.57l0.97 -25.17c5.1,3.04 10.45,5.37 16.07,6.97 5.63,1.61 11.05,2.41 16.33,2.41 6.15,0 10.9,-1.18 14.32,-3.46 3.42,-2.32 5.14,-5.56 5.14,-9.69 0,-5.18 -5.79,-10.43 -17.33,-15.76l-1.89 -0.92c-12.58,-5.81 -21.19,-11.54 -25.84,-17.28 -4.72,-5.73 -7.03,-12.86 -7.03,-21.49 0,-11.22 3.85,-20.32 11.53,-27.37 7.68,-7.06 17.66,-10.59 29.92,-10.59 5.36,0 10.45,0.36 15.4,1.13 4.95,0.71 9.72,1.88 14.27,3.44zm86.1 46.17l55.02 0 0 23.09 -55.02 0 0 -23.09zm142.59 -91.87l30.16 0 0 107.23c0,14.18 2.1,24.21 6.25,30.13 4.17,5.9 11.02,8.87 20.62,8.87 9.56,0 16.41,-2.94 20.51,-8.82 4.14,-5.85 6.19,-15.91 6.19,-30.18l0 -107.23 28.71 0 0 103.82c0,22.41 -4.58,38.96 -13.78,49.58 -9.18,10.62 -23.29,15.91 -42.35,15.91 -19.19,0 -33.34,-5.29 -42.51,-15.91 -9.22,-10.62 -13.8,-27.17 -13.8,-49.58l0 -103.82zm147.2 0l35.01 0 57.16 129.43 0 -129.43 26.29 0 0 166.91 -35.51 0 -56.66 -128.99 0 128.99 -26.29 0 0 -166.91zm153.97 0l30.16 0 0 166.91 -30.16 0 0 -166.91zm168.94 4.42l-1.19 25.93c-4.64,-2.97 -9.38,-5.13 -14.24,-6.46 -4.87,-1.31 -10.58,-2 -17.1,-2 -14.6,0 -26.02,5.33 -34.26,15.94 -8.26,10.67 -12.39,25.46 -12.39,44.39 0,19.95 4.3,35.47 12.91,46.49 8.6,11.02 20.62,16.56 36.11,16.56 5.18,0 10.25,-0.73 15.24,-2.17 4.97,-1.45 9.98,-3.64 14.91,-6.54l0.92 26.5c-5.5,2.13 -11.22,3.7 -17.13,4.74 -5.94,0.99 -12.22,1.52 -18.83,1.52 -22.99,0 -41.45,-7.78 -55.38,-23.33 -13.91,-15.51 -20.86,-36.31 -20.86,-62.28 0,-26.54 6.8,-47.59 20.43,-63.1 13.63,-15.5 32.01,-23.25 55.13,-23.25 5.8,0 11.65,0.57 17.53,1.69 5.92,1.16 11.95,2.92 18.18,5.37zm26.07 -4.42l86.38 0 0 23.09 -56.22 0 0 46.66 53.09 0 0 23.09 -53.09 0 0 50.98 58.88 0 0 23.08 -89.04 0 0 -166.91zm118.51 0l35.02 0 57.15 129.43 0 -129.43 26.3 0 0 166.91 -35.51 0 -56.66 -128.99 0 128.99 -26.31 0 0 -166.91z"/>
  </g>
 </g>
</svg>
